# xmcd CD database file
#
# Track frame offsets:
#	150
#	17365
#	41997
#	60360
#	81157
#	110427
#	129925
#	150530
#	177572
#
# Disc length: 2606 seconds
#
# Revision: 4
# Processed by: cddbd v1.5.1PL0 Copyright (c) Steve Scherf et al.
# Submitted via: CDex 1.51
#
DISCID=680a2c09
DTITLE=ハナレグミ - 音タイム
DYEAR=2002
DGENRE=J-POP
TTITLE0=音タイム
TTITLE1=雪の中に
TTITLE2=明日天気になれ
TTITLE3=家族の風景
TTITLE4=Jamaica Song
TTITLE5=Wake Upしてください
TTITLE6=かこめ　かこめ
TTITLE7=ナタリー
TTITLE8=一日の終わりに
EXTD=YEAR: 2002
EXTT0=
EXTT1=
EXTT2=
EXTT3=
EXTT4=
EXTT5=
EXTT6=
EXTT7=
EXTT8=
PLAYORDER=
